<svg width="149" height="294" viewBox="0 0 149 294" fill="none" xmlns="http://www.w3.org/2000/svg">
<path d="M76.2017 55.2025C76.2017 55.2025 69.6731 4.36589 67.4838 1.07334C65.2944 -2.21921 48.7354 22.7804 53.2047 36.952C57.6796 51.1235 -4.20565 51.4743 0.620034 72.1744C5.44572 92.8688 2.48694 120.839 28.1542 122.27C53.8157 123.707 83.1036 116.743 89.106 107.21C95.1141 97.6832 76.2017 55.2025 76.2017 55.2025Z" fill="url(#paint0_linear)"/>
<path d="M81.156 67.2876C81.156 67.2876 168.295 239.649 144.359 269.157C120.423 298.666 77.8747 302.038 60.8971 277.564C50.9799 263.279 64.829 137.059 50.1879 121.586C35.5467 106.114 76.5113 59.1694 81.156 67.2876Z" fill="#FFCEB0"/>
<defs>
<linearGradient id="paint0_linear" x1="90" y1="134" x2="45.3182" y2="0.77774" gradientUnits="userSpaceOnUse">
<stop stop-color="#FFC4A0"/>
<stop offset="1" stop-color="#FFCEB0"/>
</linearGradient>
</defs>
</svg>
