<svg width="423" height="116" viewBox="0 0 423 116" fill="none" xmlns="http://www.w3.org/2000/svg">
<path d="M174.621 32.3812C174.621 32.3812 202.515 65.8747 202.443 98.1127C202.399 118.639 187.291 84.0447 182.104 77.041C176.923 70.0428 193.276 100.194 187.858 109.846C185.209 114.57 168.322 79.6949 168.322 79.6949C168.322 79.6949 175.491 112.462 170.921 115.644C166.357 118.832 154.574 87.3208 154.574 87.3208C154.574 87.3208 155.124 112.919 149.695 113.238C144.272 113.557 146.221 87.2492 124.444 75.8572C102.662 64.4651 3.44857 143.312 1.09197 78.6928C-1.26463 14.0736 27.846 -8.31414 95.2788 3.4193C148.495 12.6805 156.892 18.55 174.621 32.3812Z" fill="#FFC6A6"/>
<path d="M236.658 32.3812C236.658 32.3812 208.764 65.8747 208.835 98.1127C208.879 118.639 223.988 84.0447 229.175 77.041C234.356 70.0428 218.003 100.194 223.421 109.846C226.069 114.57 242.956 79.6949 242.956 79.6949C242.956 79.6949 235.788 112.462 240.358 115.644C244.922 118.832 256.705 87.3208 256.705 87.3208C256.705 87.3208 256.155 112.919 261.584 113.238C267.007 113.557 265.058 87.2492 286.834 75.8572C308.616 64.4651 420.417 151.059 422.774 86.4398C425.125 21.8206 383.433 -8.31414 316 3.4193C262.784 12.6805 254.387 18.55 236.658 32.3812Z" fill="#FFC6A6"/>
</svg>
