<svg width="189" height="193" viewBox="0 0 189 193" fill="none" xmlns="http://www.w3.org/2000/svg">
<path opacity="0.93" d="M182.81 91.7435C179.781 91.6542 177.166 93.9998 176.424 97.2245C171.725 97.5928 166.363 97.7174 160.479 97.3434C157.19 97.13 154.078 96.785 151.16 96.3576C151.175 95.7934 151.186 95.2234 151.186 94.6533C151.186 91.8798 150.992 89.1543 150.617 86.488C152.099 85.3421 153.958 84.1365 156.203 83.1027C160.103 81.298 163.758 80.6561 166.567 80.4723C167.95 83.6378 171.114 85.4779 174.158 84.677C177.578 83.7742 179.531 79.8727 178.523 75.9591C177.515 72.046 173.929 69.5989 170.509 70.5018C167.392 71.327 165.491 74.641 165.94 78.1858C163.476 79.5996 159.816 81.1316 155.284 81.2447C153.039 81.3038 151.081 81.0006 149.494 80.6086C148.486 76.4699 147.035 72.5024 145.192 68.7616C147.145 66.9802 149.452 65.0915 152.157 63.2684C156.073 60.62 159.847 58.7256 163.163 57.3663C165.324 59.919 168.775 60.7685 171.433 59.2121C174.487 57.4312 175.354 53.1372 173.359 49.6341C171.36 46.1299 167.251 44.7405 164.197 46.5277C161.534 48.0778 160.542 51.5228 161.638 54.6936C158.793 56.9267 155.289 59.2839 151.086 61.3866C148.225 62.8235 145.489 63.9161 143.015 64.7471C140.994 61.3205 138.619 58.1259 135.961 55.2103C136.984 51.4573 138.713 47.074 141.657 42.6802C144.419 38.5705 147.494 35.5719 150.105 33.463C152.976 35.2629 156.589 34.9834 158.647 32.614C160.986 29.9303 160.448 25.5893 157.446 22.9166C154.449 20.2387 150.121 20.2445 147.792 22.9283C145.724 25.2982 145.897 28.9503 148.032 31.6166C146.346 34.4314 143.798 37.9229 140.049 41.2485C135.919 44.9191 131.763 47.1163 128.605 48.4227C125.012 45.637 121.091 43.2734 116.899 41.4033C117.51 39.699 118.314 37.9826 119.368 36.2962C120.214 34.9602 121.123 33.7837 122.047 32.7572C125.242 34.0695 128.808 33.1244 130.416 30.3751C132.228 27.3052 130.907 23.1364 127.466 21.0697C124.031 19.003 119.781 19.8166 117.974 22.8929C116.392 25.5951 117.228 29.1458 119.781 31.3667C119.248 32.7921 118.601 34.2713 117.833 35.7791C116.956 37.5134 115.996 39.111 114.988 40.5897C114.565 40.4175 114.137 40.2511 113.714 40.0973C108.718 38.2087 103.402 37.0152 97.8629 36.6106C96.9545 34.1286 96.1609 31.3778 95.6074 28.3565C94.4745 22.1913 94.6833 16.8254 95.2054 12.7955C98.4634 12.1642 100.907 9.57506 100.907 6.47292C100.907 2.89848 97.6646 0.000248528 93.6652 0.000248528C89.6711 0.000248528 86.4288 2.89848 86.4288 6.47292C86.4288 9.62896 88.961 12.2535 92.2973 12.8267C93.023 16.7974 93.4981 22.3572 92.3756 28.8013C91.8796 31.6383 91.1486 34.2238 90.2924 36.5636C84.9826 36.8668 79.8712 37.9044 75.0417 39.5764C74.3682 38.4971 73.7677 37.3639 73.23 36.0273C72.1597 33.3811 71.695 30.8992 71.5122 28.8341C74.6344 27.189 76.2477 23.7376 75.1409 20.6841C73.9348 17.3257 69.9042 15.7286 66.1502 17.1165C62.3963 18.5043 60.334 22.3513 61.5453 25.7092C62.5895 28.6074 65.7325 30.1886 68.9905 29.6772C69.9407 31.6536 70.8492 33.9332 71.5697 36.5218C71.9456 37.8933 72.2327 39.2336 72.452 40.5448C68.0715 42.3014 63.9574 44.5915 60.1825 47.3323C58.1933 45.879 56.1623 44.1911 54.1574 42.2126C49.5368 37.6592 46.4511 32.9891 44.4254 29.2477C46.6704 26.7357 47.062 23.1401 45.1824 20.6624C43.0261 17.8281 38.7136 17.5285 35.5444 19.9941C32.3752 22.4591 31.5502 26.7558 33.7065 29.5895C35.607 32.0947 39.1991 32.6156 42.1908 31.0022C45.1198 33.6527 48.9155 37.8352 51.8602 43.8461C53.202 46.5953 54.1418 49.2691 54.7944 51.7626C54.1888 52.3258 53.5831 52.9069 52.9984 53.4996C50.0432 56.4909 47.4118 59.8027 45.1511 63.3872C43.8198 62.9984 42.4414 62.5298 41.0317 61.9545C36.4319 60.0833 32.8712 57.6986 30.292 55.6208C31.3884 52.3886 30.3233 48.9008 27.5927 47.3894C24.4966 45.6714 20.4294 47.1538 18.5081 50.7007C16.5867 54.2482 17.5369 58.5169 20.6382 60.2343C23.3636 61.7458 26.8304 60.7801 28.9397 58.1148C32.0724 59.2105 35.9673 60.9687 39.9979 63.8553C41.1988 64.7175 42.3056 65.6045 43.329 66.4968C40.1389 72.3085 37.9147 78.7321 36.8548 85.5518C34.0981 85.7906 31.1273 85.9037 27.9425 85.8049C23.3949 85.6628 19.286 85.1234 15.6991 84.4213C15.6156 80.8548 13.2557 77.8689 10.0551 77.5292C6.54659 77.1562 3.35651 80.1146 2.94405 84.1381C2.52114 88.1606 5.03768 91.7245 8.54624 92.0974C11.6737 92.4292 14.5348 90.12 15.4224 86.7733C19.1085 86.8488 23.2436 87.1816 27.7232 87.9614C30.8193 88.5008 33.6961 89.1897 36.3432 89.9541C36.2179 91.5031 36.1552 93.0695 36.1552 94.6533C36.1552 98.4153 36.505 102.095 37.1838 105.661C34.1399 107.701 29.9317 110.015 24.5853 111.64C19.8968 113.065 15.673 113.55 12.3107 113.654C11.1046 110.483 8.10246 108.505 5.05858 109.099C1.59179 109.777 -0.611493 113.545 0.150782 117.517C0.907836 121.489 4.33288 124.159 7.80489 123.481C10.8018 122.895 12.8432 119.999 12.8536 116.659C16.2995 115.525 20.3615 114.462 24.9874 113.769C30.3076 112.974 35.0745 112.86 39.0842 113.036C40.6975 117.957 42.9531 122.582 45.7359 126.814C44.4254 127.866 42.9531 128.905 41.3136 129.876C38.1549 131.736 35.1267 132.893 32.5005 133.64C30.7149 130.768 27.3943 129.419 24.5279 130.593C21.2543 131.935 19.8081 136.062 21.317 139.809C22.2568 142.161 24.1363 143.812 26.2143 144.376C27.4413 144.715 28.7413 144.673 29.9578 144.174C30.3233 144.026 30.6627 143.841 30.9759 143.622C33.3724 142.019 34.3853 138.698 33.3724 135.529C35.8576 134.231 38.7605 132.946 42.1125 131.887C44.2583 131.207 46.3102 130.711 48.242 130.341C50.0015 132.644 51.9333 134.804 54.0113 136.799C54.2097 136.988 54.4028 137.178 54.6012 137.356C53.1968 140.528 51.0822 144.382 47.8922 148.29C44.77 152.113 41.5225 154.899 38.7919 156.864C36.0508 154.899 32.464 154.94 30.2554 157.143C27.7441 159.656 27.9843 164.026 30.7984 166.907C33.6021 169.781 37.9252 170.078 40.4365 167.565C42.6137 165.386 42.7233 161.8 40.8646 159.014C43.0157 156.182 45.8194 152.987 49.401 149.833C53.2437 146.448 57.0395 143.942 60.3444 142.096C64.7197 145.243 69.5543 147.79 74.718 149.614C74.5091 151.579 74.1593 153.699 73.5903 155.926C72.3529 160.778 70.4889 164.668 68.7973 167.53C65.4871 166.859 62.2135 168.391 61.091 171.324C59.8171 174.656 61.8063 178.54 65.5341 180C69.262 181.463 73.3187 179.942 74.5927 176.604C75.7047 173.706 74.3421 170.392 71.5175 168.623C72.3163 165.172 73.5746 161.093 75.5795 156.711C76.561 154.573 77.6052 152.625 78.6755 150.849C82.6488 151.935 86.7943 152.601 91.0651 152.785C91.7647 156.17 92.3286 159.959 92.6001 164.098C93.0074 170.256 92.6784 175.707 92.0989 180.209C88.8514 180.846 86.4288 183.435 86.4288 186.527C86.4288 190.1 89.6711 193 93.6704 193C97.6698 193 100.907 190.1 100.907 186.527C100.907 183.446 98.4947 180.862 95.2681 180.214C94.7251 175.612 94.4275 170.173 94.7355 164.098C94.9496 160 95.409 156.218 95.9938 152.797C100.458 152.625 104.791 151.93 108.932 150.772C109.287 151.389 109.642 152.03 109.976 152.69C112.221 157.043 113.432 161.123 114.09 164.389C111.208 166.081 109.746 169.371 110.775 172.304C111.965 175.672 115.975 177.299 119.75 175.945C123.514 174.585 125.602 170.754 124.417 167.387C123.368 164.401 120.084 162.785 116.727 163.403C115.186 160.725 113.396 156.68 112.774 151.502C112.696 150.861 112.639 150.231 112.602 149.614C117.217 147.998 121.556 145.795 125.545 143.099C128.124 145.219 130.839 147.749 133.538 150.754C137.684 155.374 140.697 159.929 142.874 163.8C140.665 166.307 140.279 169.876 142.153 172.34C144.309 175.172 148.617 175.47 151.791 173.005C154.96 170.54 155.791 166.247 153.634 163.408C151.77 160.962 148.293 160.404 145.338 161.895C142.158 158.634 138.634 154.507 135.235 149.435C133.037 146.157 131.225 142.975 129.727 139.987C131.335 138.675 132.875 137.279 134.332 135.801C136.728 133.378 138.916 130.747 140.848 127.933C144.419 128.942 148.549 130.42 152.924 132.641C157.143 134.774 160.657 137.119 163.492 139.304C162.416 142.476 163.439 145.908 166.097 147.44C169.167 149.216 173.255 147.802 175.244 144.293C177.228 140.778 176.346 136.495 173.276 134.72C170.592 133.17 167.126 134.055 164.969 136.656C161.805 135.438 157.968 133.592 153.989 130.759C149.854 127.82 146.737 124.666 144.471 121.946C146.001 119.048 147.291 116.002 148.319 112.831C150.037 112.891 151.843 113.045 153.728 113.33C158.558 114.067 162.583 115.45 165.679 116.828C165.413 120.212 167.303 123.312 170.305 124.09C173.72 124.981 177.307 122.528 178.304 118.609C179.296 114.689 177.328 110.794 173.913 109.904C170.895 109.119 167.757 110.925 166.374 114.042C163.079 113.769 158.871 113.039 154.266 111.233C152.512 110.545 150.899 109.778 149.426 108.977C150.162 106.038 150.679 103.014 150.945 99.9152C153.921 99.6716 157.091 99.5174 160.416 99.511C166.301 99.4931 171.637 99.9204 176.325 100.55C176.889 103.811 179.369 106.293 182.397 106.388C185.927 106.489 188.887 103.294 188.997 99.2495C189.111 95.2054 186.344 91.8444 182.81 91.7435Z" fill="#FA5752" fill-opacity="0.9"/>
</svg>
