<svg width="123" height="125" viewBox="0 0 123 125" fill="none" xmlns="http://www.w3.org/2000/svg">
<path opacity="0.89" d="M118.971 59.4197C117.001 59.3619 115.298 60.881 114.816 62.9696C111.758 63.2081 108.268 63.2888 104.439 63.0466C102.298 62.9083 100.273 62.6849 98.3737 62.4081C98.3838 62.0427 98.3906 61.6735 98.3906 61.3043C98.3906 59.508 98.2649 57.7428 98.0203 56.0159C98.9853 55.2737 100.195 54.4929 101.656 53.8233C104.194 52.6545 106.573 52.2388 108.401 52.1197C109.301 54.1699 111.36 55.3617 113.341 54.8429C115.567 54.2582 116.837 51.7313 116.182 49.1966C115.526 46.6622 113.192 45.0773 110.966 45.6621C108.938 46.1966 107.701 48.3429 107.993 50.6388C106.389 51.5544 104.007 52.5467 101.058 52.6199C99.5969 52.6583 98.3227 52.4619 97.2898 52.208C96.634 49.5275 95.6894 46.9579 94.4899 44.535C95.7607 43.3813 97.2626 42.158 99.0227 40.9772C101.571 39.262 104.028 38.035 106.185 37.1546C107.592 38.808 109.838 39.3581 111.567 38.3501C113.555 37.1967 114.119 34.4156 112.821 32.1468C111.52 29.8772 108.846 28.9773 106.858 30.1349C105.125 31.1388 104.48 33.37 105.193 35.4236C103.341 36.87 101.061 38.3967 98.3261 39.7585C96.4641 40.6891 94.6836 41.3967 93.073 41.935C91.7581 39.7157 90.2121 37.6467 88.4826 35.7583C89.1486 33.3276 90.2732 30.4887 92.1896 27.6429C93.987 24.9813 95.9884 23.0392 97.6873 21.6732C99.5561 22.839 101.907 22.658 103.246 21.1234C104.768 19.3852 104.418 16.5737 102.465 14.8427C100.514 13.1083 97.6975 13.1121 96.182 14.8502C94.8365 16.3852 94.9487 18.7505 96.3384 20.4774C95.2409 22.3004 93.5827 24.5618 91.1431 26.7157C88.4554 29.093 85.7507 30.516 83.695 31.3622C81.3573 29.558 78.8056 28.0272 76.0771 26.8159C76.4746 25.7121 76.9979 24.6004 77.6843 23.5083C78.2347 22.6429 78.8259 21.8809 79.4273 21.2161C81.5068 22.066 83.8275 21.4539 84.8741 19.6733C86.0531 17.685 85.1935 14.985 82.9543 13.6465C80.7185 12.308 77.9527 12.8349 76.777 14.8273C75.7475 16.5775 76.2911 18.8771 77.9527 20.3156C77.6061 21.2387 77.1848 22.1968 76.6853 23.1733C76.1145 24.2966 75.4893 25.3313 74.8335 26.289C74.5582 26.1775 74.2796 26.0697 74.0044 25.9701C70.7527 24.7469 67.2937 23.9739 63.6886 23.7118C63.0974 22.1044 62.5809 20.3228 62.2207 18.3659C61.4834 14.3729 61.6193 10.8976 61.9591 8.2876C64.0793 7.87872 65.6695 6.2018 65.6695 4.19264C65.6695 1.87758 63.5595 0.000491983 60.9567 0.000491983C58.3574 0.000491983 56.2473 1.87758 56.2473 4.19264C56.2473 6.2367 57.8953 7.93655 60.0665 8.3078C60.5388 10.8795 60.848 14.4804 60.1175 18.654C59.7947 20.4914 59.319 22.166 58.7617 23.6814C55.3061 23.8778 51.9797 24.5498 48.8367 25.6327C48.3983 24.9337 48.0076 24.1998 47.6576 23.3341C46.9611 21.6202 46.6586 20.0128 46.5397 18.6752C48.5716 17.6098 49.6215 15.3744 48.9012 13.3967C48.1163 11.2216 45.4932 10.1873 43.0502 11.0861C40.6071 11.985 39.265 14.4766 40.0533 16.6514C40.7328 18.5285 42.7783 19.5525 44.8986 19.2213C45.517 20.5014 46.1082 21.9778 46.5771 23.6544C46.8217 24.5426 47.0086 25.4107 47.1513 26.2599C44.3005 27.3976 41.623 28.8809 39.1664 30.656C37.8718 29.7147 36.5501 28.6215 35.2453 27.3401C32.2382 24.391 30.2301 21.3663 28.9118 18.9432C30.3728 17.3162 30.6277 14.9874 29.4044 13.3827C28.0011 11.547 25.1945 11.353 23.1321 12.9499C21.0696 14.5464 20.5327 17.3292 21.936 19.1645C23.1728 20.7871 25.5105 21.1244 27.4575 20.0795C29.3637 21.7961 31.8339 24.505 33.7503 28.3981C34.6235 30.1787 35.2351 31.9103 35.6599 33.5253C35.2657 33.8901 34.8716 34.2665 34.491 34.6504C32.5678 36.5877 30.8553 38.7327 29.3841 41.0542C28.5176 40.8024 27.6206 40.4989 26.7032 40.1263C23.7097 38.9144 21.3923 37.3699 19.7138 36.0241C20.4274 33.9308 19.7342 31.6719 17.9572 30.6929C15.9422 29.5802 13.2953 30.5403 12.0449 32.8376C10.7945 35.1352 11.4129 37.8999 13.4312 39.0122C15.2049 39.9911 17.4611 39.3657 18.8338 37.6395C20.8725 38.3491 23.4073 39.4878 26.0304 41.3574C26.8119 41.9158 27.5322 42.4903 28.1982 43.0682C26.1221 46.8323 24.6747 50.9926 23.9849 55.4096C22.1908 55.5642 20.2575 55.6374 18.1848 55.5734C15.2253 55.4814 12.5512 55.1321 10.2169 54.6773C10.1625 52.3674 8.6267 50.4335 6.54382 50.2135C4.26048 49.9719 2.1844 51.8881 1.91597 54.4939C1.64074 57.0991 3.27849 59.4074 5.56184 59.6489C7.59714 59.8638 9.45916 58.3682 10.0368 56.2006C12.4357 56.2496 15.1268 56.4651 18.0421 56.9702C20.057 57.3195 21.9292 57.7657 23.6519 58.2608C23.5704 59.264 23.5296 60.2785 23.5296 61.3043C23.5296 63.7408 23.7572 66.124 24.199 68.4335C22.218 69.7546 19.4794 71.2536 16 72.3058C12.9487 73.2289 10.1999 73.543 8.01169 73.6104C7.2268 71.5565 5.27303 70.2754 3.29209 70.66C1.03593 71.0993 -0.397956 73.5399 0.0981279 76.1123C0.590814 78.685 2.81981 80.4143 5.07937 79.9749C7.02973 79.5958 8.35825 77.7198 8.36505 75.5566C10.6076 74.8224 13.2511 74.1339 16.2616 73.6847C19.724 73.1697 22.8262 73.0962 25.4358 73.2104C26.4857 76.3977 27.9536 79.3926 29.7646 82.134C28.9118 82.8152 27.9536 83.4883 26.8867 84.1171C24.831 85.3215 22.8602 86.0709 21.1511 86.555C19.9891 84.6947 17.828 83.8208 15.9626 84.5811C13.8322 85.4505 12.891 88.1235 13.873 90.5504C14.4846 92.0734 15.7078 93.1426 17.0601 93.5081C17.8586 93.7274 18.7047 93.7004 19.4964 93.377C19.7342 93.2812 19.9551 93.1618 20.1589 93.0195C21.7186 91.9817 22.3777 89.8305 21.7185 87.7779C23.3359 86.9376 25.2251 86.1054 27.4065 85.4191C28.803 84.9787 30.1384 84.6577 31.3956 84.4182C32.5407 85.9097 33.7979 87.3088 35.1502 88.6008C35.2793 88.7233 35.405 88.8465 35.5341 88.9618C34.6201 91.0158 33.244 93.5118 31.1679 96.0428C29.136 98.5193 27.0226 100.324 25.2455 101.596C23.4616 100.324 21.1273 100.35 19.6901 101.777C18.0557 103.404 18.212 106.235 20.0434 108.101C21.868 109.962 24.6815 110.154 26.3158 108.527C27.7327 107.116 27.8041 104.793 26.5944 102.989C27.9943 101.154 29.819 99.0849 32.1499 97.0426C34.6507 94.8504 37.1209 93.2271 39.2718 92.0313C42.1191 94.0695 45.2655 95.7194 48.626 96.9006C48.4901 98.1734 48.2624 99.5465 47.8921 100.989C47.0868 104.131 45.8737 106.65 44.7728 108.504C42.6186 108.07 40.4882 109.062 39.7576 110.962C38.9286 113.12 40.2231 115.635 42.6492 116.581C45.0752 117.528 47.7154 116.543 48.5444 114.381C49.2682 112.504 48.3813 110.358 46.5431 109.212C47.063 106.977 47.8819 104.335 49.1866 101.497C49.8254 100.112 50.505 98.8506 51.2015 97.7002C53.7873 98.404 56.4852 98.8352 59.2646 98.9542C59.7199 101.146 60.0869 103.6 60.2636 106.281C60.5286 110.269 60.3145 113.8 59.9374 116.716C57.8239 117.129 56.2473 118.806 56.2473 120.808C56.2473 123.122 58.3574 125 60.9601 125C63.5629 125 65.6695 123.122 65.6695 120.808C65.6695 118.813 64.0997 117.139 61.9998 116.72C61.6465 113.739 61.4528 110.216 61.6533 106.281C61.7926 103.627 62.0916 101.178 62.4722 98.9621C65.3773 98.8506 68.1975 98.4003 70.892 97.6506C71.123 98.0502 71.3541 98.4656 71.5715 98.8926C73.0326 101.712 73.8209 104.355 74.249 106.47C72.3734 107.566 71.422 109.696 72.0914 111.596C72.8661 113.777 75.4757 114.831 77.9323 113.954C80.3821 113.073 81.7413 110.592 80.97 108.412C80.287 106.478 78.1497 105.431 75.9649 105.831C74.9626 104.097 73.7971 101.477 73.3928 98.1231C73.3418 97.7081 73.3044 97.3002 73.2807 96.9006C76.2843 95.8543 79.108 94.4275 81.7039 92.6811C83.3824 94.0542 85.1493 95.6928 86.906 97.639C89.6038 100.631 91.5644 103.581 92.9813 106.089C91.544 107.712 91.2926 110.023 92.5124 111.62C93.9157 113.454 96.7189 113.647 98.7848 112.05C100.847 110.454 101.388 107.674 99.9842 105.835C98.7712 104.251 96.5082 103.889 94.5851 104.854C92.5158 102.743 90.2222 100.07 88.0103 96.7849C86.5798 94.6618 85.4007 92.6007 84.4255 90.6657C85.4721 89.8158 86.4744 88.9118 87.4224 87.9545C88.982 86.385 90.4057 84.681 91.6629 82.8583C93.987 83.5119 96.6748 84.4696 99.5221 85.908C102.268 87.289 104.554 88.8078 106.399 90.2233C105.699 92.2773 106.365 94.5003 108.095 95.4926C110.093 96.6429 112.753 95.7273 114.048 93.4544C115.339 91.1776 114.765 88.4041 112.767 87.2544C111.02 86.2505 108.764 86.8236 107.361 88.5081C105.302 87.7194 102.804 86.5236 100.215 84.6889C97.5242 82.7851 95.4957 80.7428 94.021 78.981C95.0166 77.1042 95.8559 75.1313 96.5253 73.0773C97.6431 73.116 98.8188 73.2159 100.045 73.4003C103.188 73.8777 105.808 74.7738 107.823 75.6661C107.65 77.858 108.88 79.8658 110.834 80.3695C113.056 80.9463 115.39 79.358 116.039 76.8196C116.685 74.2811 115.404 71.7583 113.181 71.1814C111.217 70.6733 109.175 71.8432 108.275 73.8619C106.131 73.685 103.392 73.2122 100.395 72.0426C99.2537 71.5968 98.2038 71.1003 97.2456 70.5813C97.7247 68.6775 98.0611 66.7193 98.2344 64.7122C100.171 64.5545 102.234 64.4546 104.398 64.4505C108.227 64.4388 111.7 64.7156 114.751 65.1235C115.118 67.2353 116.732 68.8428 118.703 68.9044C121 68.9697 122.926 66.9003 122.998 64.2811C123.073 61.6619 121.272 59.485 118.971 59.4197Z" fill="#FA5752" fill-opacity="0.82"/>
</svg>
