<svg width="288" height="185" viewBox="0 0 288 185" fill="none" xmlns="http://www.w3.org/2000/svg">
<path d="M203.872 18.8504C203.872 18.8504 176.551 -5.68462 147.985 8.18517C119.42 22.0495 128.114 50.8517 102.032 45.5163C75.9492 40.181 28.6906 48.2419 39.934 76.4495C51.1774 104.657 -20.7429 126.725 6.57825 162.994C33.8994 199.257 107.642 171.38 130.3 178.851C152.952 186.318 206.355 189.517 212.566 168.181C218.777 146.85 258.52 143.651 252.309 115.917C246.098 88.1829 239.887 49.7836 203.872 18.8504Z" fill="white"/>
<path d="M206.706 139.703C206.706 139.703 207.301 83.0126 238.284 83.3815C269.266 83.7559 283.995 111.446 254.835 127.777C225.675 144.113 205.886 150.77 206.706 139.703Z" fill="white"/>
<path d="M230.084 104.401C230.084 104.401 235.034 115.925 246.723 117.082C258.407 118.238 284.974 117.082 287.287 133.831C289.594 150.581 275.707 173.679 258.683 171.372C241.663 169.059 224.187 165.585 209.833 175.204C195.478 184.823 209.844 97.4966 230.084 104.401Z" fill="white"/>
<path d="M259.564 14.5804C259.564 22.2339 253.358 28.4392 245.705 28.4392C238.046 28.4392 231.841 22.2339 231.841 14.5804C231.841 6.92699 238.046 0.721649 245.705 0.721649C253.358 0.721649 259.564 6.92699 259.564 14.5804Z" fill="white"/>
<path d="M98.8588 14.5804C98.8588 22.2339 92.6535 28.4392 85 28.4392C77.3411 28.4392 71.1357 22.2339 71.1357 14.5804C71.1357 6.92699 77.3411 0.721649 85 0.721649C92.6535 0.721649 98.8588 6.92699 98.8588 14.5804Z" fill="white"/>
</svg>
