<svg width="267" height="261" viewBox="0 0 267 261" fill="none" xmlns="http://www.w3.org/2000/svg">
<path d="M41.9072 52.958C41.9072 52.958 160.768 117.914 182.988 117.648C205.206 117.376 227.565 104.983 233.905 113.516C240.242 122.056 192.087 124.654 205.26 136.293C218.426 147.929 251.422 153.033 258.243 167.687C265.057 182.339 203.433 154.52 203.433 154.52C203.433 154.52 260.927 179.467 248.73 186.228C236.529 192.996 184.949 166.496 184.949 166.496C184.949 166.496 246.293 204.142 231.901 204.704C217.508 205.267 45.8331 126.549 22.2264 120.698C-1.38565 114.848 41.9072 52.958 41.9072 52.958Z" fill="#FFC6A6"/>
</svg>
