<svg width="142" height="142" viewBox="0 0 142 142" fill="none" xmlns="http://www.w3.org/2000/svg">
<path opacity="0.15" d="M141.268 71.366C141.268 32.3562 109.643 0.731911 70.6336 0.731911C31.6238 0.731911 -0.000488281 32.3562 -0.000488281 71.366C-0.000488281 110.376 31.6238 142 70.6336 142C109.643 142 141.268 110.376 141.268 71.366Z" fill="#FF383D"/>
<path d="M40.2024 57.2266H35.9377V69H33.3596V57.2266H29.052V54.8955H40.2024V57.2266ZM42.1145 54.8955H44.6926V60.75L50.9446 60.7715V54.8955H53.5334V69H50.9446V62.9951H44.6926V69H42.1145V54.8955ZM56.5735 54.8955H62.1702C63.8889 54.8955 65.1923 55.2786 66.0803 56.0449C66.9755 56.804 67.4231 57.889 67.4231 59.2998C67.4231 60.2809 67.1939 61.1188 66.7356 61.8135C66.2844 62.501 65.6471 62.9987 64.8235 63.3066L67.509 69H64.6301L62.2561 63.7471H59.1516V69H56.5735V54.8955ZM62.1702 61.502C63.0081 61.502 63.6418 61.3014 64.0715 60.9004C64.5012 60.4922 64.7161 59.9658 64.7161 59.3213C64.7161 58.6768 64.4976 58.1576 64.0608 57.7637C63.6311 57.3626 63.0009 57.1621 62.1702 57.1621H59.1516V61.502H62.1702ZM83.8694 61.9424C83.8694 63.3604 83.5471 64.6279 82.9026 65.7451C82.2581 66.8623 81.3665 67.7324 80.2278 68.3555C79.0963 68.9785 77.8251 69.29 76.4143 69.29C75.0035 69.29 73.7323 68.9821 72.6008 68.3662C71.4765 67.7503 70.5956 66.8838 69.9583 65.7666C69.3209 64.6494 69.0022 63.3818 69.0022 61.9639C69.0022 60.5387 69.3209 59.2712 69.9583 58.1611C70.5956 57.0439 71.4765 56.1738 72.6008 55.5508C73.7323 54.9277 75.0107 54.6162 76.4358 54.6162C77.8466 54.6162 79.1142 54.9277 80.2385 55.5508C81.37 56.1738 82.2581 57.0404 82.9026 58.1504C83.5471 59.2533 83.8694 60.5173 83.8694 61.9424ZM81.1409 61.9424C81.1409 60.9827 80.9403 60.1305 80.5393 59.3857C80.1383 58.641 79.5761 58.0609 78.8528 57.6455C78.1366 57.223 77.331 57.0117 76.4358 57.0117C75.5263 57.0117 74.7099 57.223 73.9866 57.6455C73.2704 58.0609 72.7083 58.641 72.3 59.3857C71.8918 60.1305 71.6877 60.9899 71.6877 61.9639C71.6877 62.9163 71.8918 63.7686 72.3 64.5205C72.7083 65.2653 73.2704 65.8454 73.9866 66.2607C74.7099 66.6761 75.5263 66.8838 76.4358 66.8838C77.331 66.8838 78.1366 66.6761 78.8528 66.2607C79.5761 65.8454 80.1383 65.2653 80.5393 64.5205C80.9403 63.7686 81.1409 62.9092 81.1409 61.9424ZM89.4553 54.8955H92.0764L97.3079 69H94.5793L93.4407 65.7881H88.0481L86.8557 69H84.1917L89.4553 54.8955ZM92.6887 63.6504L91.7864 61.1689C91.7004 60.9326 91.4641 60.2344 91.0774 59.0742L90.7766 58.1934C90.7193 58.3867 90.5833 58.7913 90.3684 59.4072C90.1536 60.0231 89.9351 60.6104 89.7131 61.1689L88.7893 63.6504H92.6887ZM107.706 57.2266H103.442V69H100.864V57.2266H96.5559V54.8955H107.706V57.2266ZM55.6819 83.8955C57.1643 83.8955 58.328 84.3145 59.1731 85.1523C60.0253 85.9902 60.4514 87.111 60.4514 88.5146C60.4514 89.4242 60.2581 90.2298 59.8713 90.9316C59.4846 91.6263 58.926 92.1706 58.1956 92.5645C57.4722 92.9583 56.62 93.1553 55.6389 93.1553H52.47V98H49.8918V83.8955H55.6819ZM55.1555 90.9424C56.0221 90.9424 56.6702 90.7096 57.0999 90.2441C57.5367 89.7715 57.7551 89.1807 57.7551 88.4717C57.7551 87.8271 57.5367 87.2829 57.0999 86.8389C56.6702 86.3877 56.0435 86.1621 55.22 86.1621H52.47V90.9424H55.1555ZM65.3713 83.8955H67.9924L73.2239 98H70.4954L69.3567 94.7881H63.9641L62.7717 98H60.1077L65.3713 83.8955ZM68.6047 92.6504L67.7024 90.1689C67.6165 89.9326 67.3801 89.2344 66.9934 88.0742L66.6926 87.1934C66.6353 87.3867 66.4993 87.7913 66.2844 88.4072C66.0696 89.0231 65.8512 89.6104 65.6292 90.1689L64.7053 92.6504H68.6047ZM75.0286 98V83.8955H77.6067V98H75.0286ZM92.0979 83.8955V98H89.6809L83.1926 88.3428V98H80.636V83.8955H83.0637L89.552 93.5742V83.8955H92.0979Z" fill="#FF383D"/>
</svg>
