<svg width="266" height="203" viewBox="0 0 266 203" fill="none" xmlns="http://www.w3.org/2000/svg">
<path d="M78.3518 7.72698C78.3518 7.72698 93.2324 115.569 79.3192 127.757C65.4117 139.944 47.8202 129.274 24.2105 137.355C0.600796 145.429 -0.210134 112.644 1.41173 95.8232C3.03359 79.0021 10.7317 -27.8382 78.3518 7.72698Z" fill="white"/>
<path d="M121.791 19.92C121.791 19.92 65.3731 -4.22844 44.5205 1.367C23.668 6.96243 64.1451 12.274 72.3934 16.2708C80.6418 20.2617 42.1688 13.6584 37.3554 16.711C32.5477 19.7578 72.3355 31.0356 72.3355 31.0356C72.3355 31.0356 37.0657 30.0045 34.6619 35.3451C32.2581 40.6856 67.1282 46.7329 67.1282 46.7329C67.1282 46.7329 40.5585 51.1467 41.2884 56.8232C42.0124 62.4939 91.0391 60.7273 107.061 81.0237C123.077 101.326 145.794 212.007 213.061 201.858C280.322 191.71 279.685 150.248 231.174 97.0281C182.663 43.8135 141.357 29.2631 121.791 19.92Z" fill="#FFC6A6"/>
</svg>
